<?xml version="1.0" encoding="UTF-8"?>
<!DOCTYPE svg PUBLIC "-//W3C//DTD SVG 1.1//EN" "http://www.w3.org/Graphics/SVG/1.1/DTD/svg11.dtd">
<svg xmlns="http://www.w3.org/2000/svg" version="1.1" width="972px" height="1000px" style="shape-rendering:geometricPrecision; text-rendering:geometricPrecision; image-rendering:optimizeQuality; fill-rule:evenodd; clip-rule:evenodd" xmlns:xlink="http://www.w3.org/1999/xlink">
<g><path style="opacity:0.984" fill="#37a4b8" d="M 277.5,21.5 C 274.211,72.1648 270.878,122.832 267.5,173.5C 267.833,176.167 268.167,178.833 268.5,181.5C 271.406,182.087 273.072,183.754 273.5,186.5C 245.758,283.391 218.425,380.391 191.5,477.5C 189.86,482.081 188.193,486.748 186.5,491.5C 184.935,493.509 183.935,495.843 183.5,498.5C 170.147,509.849 156.48,520.849 142.5,531.5C 187.211,361.316 232.211,191.316 277.5,21.5 Z"/></g>
<g><path style="opacity:0.428" fill="#96c7d7" d="M 881.5,71.5 C 892.529,58.808 903.529,46.1414 914.5,33.5C 917.139,31.5272 919.473,29.1939 921.5,26.5C 924.808,23.3648 928.308,20.3648 932,17.5C 932.667,18.1667 932.667,18.8333 932,19.5C 915.3,37.0328 898.466,54.3661 881.5,71.5 Z"/></g>
<g><path style="opacity:1" fill="#4cb3c3" d="M 279.5,22.5 C 299.419,56.0025 319.086,89.6692 338.5,123.5C 327.795,147.933 317.461,172.599 307.5,197.5C 306.833,197.5 306.5,197.833 306.5,198.5C 298.574,194.97 290.574,191.636 282.5,188.5C 282.5,190.833 282.5,193.167 282.5,195.5C 281.952,185.244 281.119,174.91 280,164.5C 277.688,171.921 275.522,179.254 273.5,186.5C 273.072,183.754 271.406,182.087 268.5,181.5C 268.167,178.833 267.833,176.167 267.5,173.5C 270.878,122.832 274.211,72.1648 277.5,21.5C 278.623,20.2426 279.289,20.5759 279.5,22.5 Z"/></g>
<g><path style="opacity:0.98" fill="#6bd2dd" d="M 279.5,22.5 C 363.202,112.867 446.535,203.533 529.5,294.5C 529.5,295.167 529.167,295.5 528.5,295.5C 489.621,278.227 450.621,261.227 411.5,244.5C 410.833,244.5 410.5,244.167 410.5,243.5C 389,206.494 367,169.827 344.5,133.5C 342,130.506 340,127.173 338.5,123.5C 319.086,89.6692 299.419,56.0025 279.5,22.5 Z"/></g>
<g><path style="opacity:1" fill="#158ca8" d="M 921.5,26.5 C 919.473,29.1939 917.139,31.5272 914.5,33.5C 773.539,153.957 632.706,274.623 492,395.5C 492.032,397.598 492.699,399.598 494,401.5C 502.442,415.391 510.609,429.391 518.5,443.5C 513.806,439.473 509.473,435.14 505.5,430.5C 487.709,409.539 469.709,388.705 451.5,368C 601.901,258.479 752.234,148.979 902.5,39.5C 908.304,34.4282 914.638,30.0949 921.5,26.5 Z"/></g>
<g><path style="opacity:1" fill="#66b7ca" d="M 914.5,33.5 C 903.529,46.1414 892.529,58.808 881.5,71.5C 861.839,93.1611 841.839,114.494 821.5,135.5C 726.2,234.968 631.033,334.635 536,434.5C 531.599,439.393 527.432,444.393 523.5,449.5C 521.086,448.089 519.419,446.089 518.5,443.5C 510.609,429.391 502.442,415.391 494,401.5C 492.699,399.598 492.032,397.598 492,395.5C 632.706,274.623 773.539,153.957 914.5,33.5 Z"/></g>
<g><path style="opacity:1" fill="#9fdfe7" d="M 338.5,123.5 C 340,127.173 342,130.506 344.5,133.5C 348.042,140.751 351.709,147.918 355.5,155C 347.966,173.233 340.299,191.4 332.5,209.5C 332.167,209.5 331.833,209.5 331.5,209.5C 323.086,205.96 315.086,201.96 307.5,197.5C 317.461,172.599 327.795,147.933 338.5,123.5 Z"/></g>
<g><path style="opacity:0.985" fill="#1795ab" d="M 821.5,135.5 C 749.408,215.324 677.074,294.991 604.5,374.5C 603.504,374.414 602.671,374.748 602,375.5C 593.443,396.948 584.609,418.281 575.5,439.5C 577.045,440.452 578.712,440.785 580.5,440.5C 584.273,439.822 587.106,441.156 589,444.5C 656.182,521.563 723.349,598.563 790.5,675.5C 705.654,603.588 620.654,531.921 535.5,460.5C 533.1,457.097 530.1,454.43 526.5,452.5C 525.833,451.167 524.833,450.167 523.5,449.5C 527.432,444.393 531.599,439.393 536,434.5C 631.033,334.635 726.2,234.968 821.5,135.5 Z"/></g>
<g><path style="opacity:1" fill="#23ced8" d="M 344.5,133.5 C 367,169.827 389,206.494 410.5,243.5C 384.412,232.36 358.412,221.027 332.5,209.5C 340.299,191.4 347.966,173.233 355.5,155C 351.709,147.918 348.042,140.751 344.5,133.5 Z"/></g>
<g><path style="opacity:1" fill="#74c0d0" d="M 282.5,195.5 C 283.333,210.491 284,225.491 284.5,240.5C 284.237,244.6 284.57,248.6 285.5,252.5C 253.908,327.355 222.575,402.355 191.5,477.5C 218.425,380.391 245.758,283.391 273.5,186.5C 275.522,179.254 277.688,171.921 280,164.5C 281.119,174.91 281.952,185.244 282.5,195.5 Z"/></g>
<g><path style="opacity:1" fill="#37a4b8" d="M 306.5,198.5 C 300.156,215.366 293.322,232.033 286,248.5C 285.817,245.635 285.317,242.969 284.5,240.5C 284,225.491 283.333,210.491 282.5,195.5C 282.5,193.167 282.5,190.833 282.5,188.5C 290.574,191.636 298.574,194.97 306.5,198.5 Z"/></g>
<g><path style="opacity:1" fill="#68bbcc" d="M 307.5,197.5 C 315.086,201.96 323.086,205.96 331.5,209.5C 327.546,219.072 323.879,228.739 320.5,238.5C 318.5,242.5 316.5,246.5 314.5,250.5C 306.05,269.41 297.55,288.41 289,307.5C 288.182,313.349 288.348,319.015 289.5,324.5C 289.375,331.407 287.042,337.407 282.5,342.5C 273.833,355.833 265.167,369.167 256.5,382.5C 266.654,358.855 276.821,335.188 287,311.5C 286.974,291.828 286.474,272.162 285.5,252.5C 284.57,248.6 284.237,244.6 284.5,240.5C 285.317,242.969 285.817,245.635 286,248.5C 293.322,232.033 300.156,215.366 306.5,198.5C 306.5,197.833 306.833,197.5 307.5,197.5 Z"/></g>
<g><path style="opacity:1" fill="#87cad8" d="M 285.5,252.5 C 286.474,272.162 286.974,291.828 287,311.5C 276.821,335.188 266.654,358.855 256.5,382.5C 254.833,385.833 253.167,389.167 251.5,392.5C 229.53,427.327 207.696,462.327 186,497.5C 185.82,495.512 185.986,493.512 186.5,491.5C 188.193,486.748 189.86,482.081 191.5,477.5C 222.575,402.355 253.908,327.355 285.5,252.5 Z"/></g>
<g><path style="opacity:0.851" fill="#1a96ac" d="M 314.5,250.5 C 306.174,275.156 297.84,299.823 289.5,324.5C 288.348,319.015 288.182,313.349 289,307.5C 297.55,288.41 306.05,269.41 314.5,250.5 Z"/></g>
<g><path style="opacity:0.99" fill="#1795ab" d="M 282.5,342.5 C 260.5,406.833 238.5,471.167 216.5,535.5C 215.833,535.5 215.5,535.833 215.5,536.5C 187.969,600.235 160.969,664.235 134.5,728.5C 114.884,752.45 94.5503,775.784 73.5,798.5C 74.4552,796.254 75.1218,793.921 75.5,791.5C 134.403,658.686 193.07,525.686 251.5,392.5C 253.167,389.167 254.833,385.833 256.5,382.5C 265.167,369.167 273.833,355.833 282.5,342.5 Z"/></g>
<g><path style="opacity:0.994" fill="#1795ab" d="M 902.5,39.5 C 752.234,148.979 601.901,258.479 451.5,368C 469.709,388.705 487.709,409.539 505.5,430.5C 409.731,497.755 314.064,565.255 218.5,633C 191.635,664.027 164.635,694.86 137.5,725.5C 190.474,643.518 243.474,561.518 296.5,479.5C 346.815,442.858 397.148,406.191 447.5,369.5C 405.481,325.482 363.148,281.815 320.5,238.5C 323.879,228.739 327.546,219.072 331.5,209.5C 331.833,209.5 332.167,209.5 332.5,209.5C 358.412,221.027 384.412,232.36 410.5,243.5C 410.5,244.167 410.833,244.5 411.5,244.5C 432.322,279.472 453.155,314.472 474,349.5C 492.673,331.994 510.84,313.994 528.5,295.5C 529.167,295.5 529.5,295.167 529.5,294.5C 653.577,209.084 777.91,124.084 902.5,39.5 Z"/></g>
<g><path style="opacity:1" fill="#9cd4e1" d="M 448.5,370.5 C 457.919,379.087 466.919,388.254 475.5,398C 395.833,470.333 316.167,542.667 236.5,615C 235.833,615.667 235.167,615.667 234.5,615C 306.042,533.628 377.375,452.128 448.5,370.5 Z"/></g>
<g><path style="opacity:1" fill="#67bacb" d="M 411.5,244.5 C 450.621,261.227 489.621,278.227 528.5,295.5C 510.84,313.994 492.673,331.994 474,349.5C 453.155,314.472 432.322,279.472 411.5,244.5 Z"/></g>
<g><path style="opacity:0.999" fill="#9bd3e0" d="M 604.5,374.5 C 616.833,391.833 629.167,409.167 641.5,426.5C 642.63,428.315 643.296,430.315 643.5,432.5C 622.267,434.446 601.267,437.112 580.5,440.5C 578.712,440.785 577.045,440.452 575.5,439.5C 584.609,418.281 593.443,396.948 602,375.5C 602.671,374.748 603.504,374.414 604.5,374.5 Z"/></g>
<g><path style="opacity:1" fill="#67bacb" d="M 251.5,392.5 C 193.07,525.686 134.403,658.686 75.5,791.5C 90.8462,748.814 106.18,706.147 121.5,663.5C 142.241,608.672 163.574,554.005 185.5,499.5C 185.043,498.702 184.376,498.369 183.5,498.5C 183.935,495.843 184.935,493.509 186.5,491.5C 185.986,493.512 185.82,495.512 186,497.5C 207.696,462.327 229.53,427.327 251.5,392.5 Z"/></g>
<g><path style="opacity:0.982" fill="#9dd4e1" d="M 505.5,430.5 C 509.473,435.14 513.806,439.473 518.5,443.5C 519.419,446.089 521.086,448.089 523.5,449.5C 524.833,450.167 525.833,451.167 526.5,452.5C 524.689,451.178 522.689,450.678 520.5,451C 371.578,568.43 222.245,685.263 72.5,801.5C 72.5569,800.391 72.8902,799.391 73.5,798.5C 94.5503,775.784 114.884,752.45 134.5,728.5C 135.833,727.833 136.833,726.833 137.5,725.5C 164.635,694.86 191.635,664.027 218.5,633C 314.064,565.255 409.731,497.755 505.5,430.5 Z"/></g>
<g><path style="opacity:1" fill="#67bacb" d="M 641.5,426.5 C 643.262,427.262 644.262,428.596 644.5,430.5C 694.743,514.079 745.409,597.413 796.5,680.5C 793.911,679.581 791.911,677.914 790.5,675.5C 723.349,598.563 656.182,521.563 589,444.5C 587.106,441.156 584.273,439.822 580.5,440.5C 601.267,437.112 622.267,434.446 643.5,432.5C 643.296,430.315 642.63,428.315 641.5,426.5 Z"/></g>
<g><path style="opacity:0.96" fill="#1795ab" d="M 644.5,430.5 C 735.651,552.135 826.318,674.135 916.5,796.5C 896.4,775.169 876.4,753.669 856.5,732C 836.013,715.343 816.013,698.176 796.5,680.5C 745.409,597.413 694.743,514.079 644.5,430.5 Z"/></g>
<g><path style="opacity:0.937" fill="#84c7d6" d="M 526.5,452.5 C 530.1,454.43 533.1,457.097 535.5,460.5C 531.9,458.57 528.9,455.903 526.5,452.5 Z"/></g>
<g><path style="opacity:0.9" fill="#9bd3e0" d="M 535.5,460.5 C 620.654,531.921 705.654,603.588 790.5,675.5C 791.911,677.914 793.911,679.581 796.5,680.5C 816.013,698.176 836.013,715.343 856.5,732C 876.4,753.669 896.4,775.169 916.5,796.5C 918.446,797.254 919.279,798.588 919,800.5C 790.812,687.502 662.979,574.169 535.5,460.5 Z"/></g>
<g><path style="opacity:0.99" fill="#67bacb" d="M 296.5,479.5 C 243.474,561.518 190.474,643.518 137.5,725.5C 136.833,726.833 135.833,727.833 134.5,728.5C 160.969,664.235 187.969,600.235 215.5,536.5C 216.167,536.5 216.5,536.167 216.5,535.5C 243.167,516.833 269.833,498.167 296.5,479.5 Z"/></g>
<g><path style="opacity:0.979" fill="#75c1d1" d="M 183.5,498.5 C 184.376,498.369 185.043,498.702 185.5,499.5C 163.574,554.005 142.241,608.672 121.5,663.5C 108.008,695.79 95.1749,728.457 83,761.5C 82.6174,762.056 82.1174,762.389 81.5,762.5C 101.369,685.355 121.703,608.355 142.5,531.5C 156.48,520.849 170.147,509.849 183.5,498.5 Z"/></g>
<g><path style="opacity:0.922" fill="#3ea7ba" d="M 121.5,663.5 C 106.18,706.147 90.8462,748.814 75.5,791.5C 75.1218,793.921 74.4552,796.254 73.5,798.5C 72.8902,799.391 72.5569,800.391 72.5,801.5C 71.9232,802.773 71.2565,802.773 70.5,801.5C 74.0355,788.344 77.7022,775.344 81.5,762.5C 82.1174,762.389 82.6174,762.056 83,761.5C 95.1749,728.457 108.008,695.79 121.5,663.5 Z"/></g>
<g><path style="opacity:0.942" fill="#1695ab" d="M 496.5,835.5 C 502.5,835.5 508.5,835.5 514.5,835.5C 514.5,878.167 514.5,920.833 514.5,963.5C 548.833,963.5 583.167,963.5 617.5,963.5C 617.5,969.5 617.5,975.5 617.5,981.5C 577.167,981.5 536.833,981.5 496.5,981.5C 496.5,932.833 496.5,884.167 496.5,835.5 Z"/></g>
<g><path style="opacity:0.949" fill="#1695ab" d="M 97.5,837.5 C 104.916,836.242 110.749,838.576 115,844.5C 133.838,889.684 152.671,934.85 171.5,980C 164.476,980.831 157.476,980.664 150.5,979.5C 134.316,941.136 118.149,902.803 102,864.5C 86.5,902.833 71,941.167 55.5,979.5C 48.5237,980.664 41.5237,980.831 34.5,980C 52.9955,934.517 71.4955,889.017 90,843.5C 92.1141,840.879 94.6141,838.879 97.5,837.5 Z"/></g>
<g><path style="opacity:0.949" fill="#1695ab" d="M 231.5,837.5 C 258.5,837.5 285.5,837.5 312.5,837.5C 312.5,843.167 312.5,848.833 312.5,854.5C 287.498,854.333 262.498,854.5 237.5,855C 219.694,860.781 214.527,872.281 222,889.5C 224.896,893.061 228.396,895.894 232.5,898C 250.101,899.293 267.768,899.959 285.5,900C 312.077,905.307 323.911,921.473 321,948.5C 316.185,966.314 304.685,976.814 286.5,980C 260.835,980.5 235.169,980.667 209.5,980.5C 209.5,974.5 209.5,968.5 209.5,962.5C 235.169,962.667 260.835,962.5 286.5,962C 302.592,955.729 307.425,944.562 301,928.5C 298.26,924.042 294.427,920.875 289.5,919C 269.522,917.974 249.522,916.974 229.5,916C 208.785,908.412 199.285,893.579 201,871.5C 204.528,854.052 214.694,842.718 231.5,837.5 Z"/></g>
<g><path style="opacity:0.95" fill="#1695ab" d="M 709.5,837.5 C 716.555,836.111 722.388,838.111 727,843.5C 745.931,888.793 764.764,934.126 783.5,979.5C 776.532,980.497 769.532,980.83 762.5,980.5C 746.962,941.751 731.129,903.085 715,864.5C 699.075,902.689 683.408,941.023 668,979.5C 661.256,980.479 654.422,980.812 647.5,980.5C 665.306,934.256 683.806,888.256 703,842.5C 704.965,840.45 707.132,838.783 709.5,837.5 Z"/></g>
<g><path style="opacity:0.959" fill="#1695ab" d="M 351.5,838.5 C 357.167,838.5 362.833,838.5 368.5,838.5C 368.5,858.833 368.5,879.167 368.5,899.5C 395.5,899.5 422.5,899.5 449.5,899.5C 449.5,879.167 449.5,858.833 449.5,838.5C 455.5,838.5 461.5,838.5 467.5,838.5C 467.5,885.833 467.5,933.167 467.5,980.5C 461.5,980.5 455.5,980.5 449.5,980.5C 449.5,959.5 449.5,938.5 449.5,917.5C 422.5,917.5 395.5,917.5 368.5,917.5C 368.5,938.5 368.5,959.5 368.5,980.5C 362.833,980.5 357.167,980.5 351.5,980.5C 351.5,933.167 351.5,885.833 351.5,838.5 Z"/></g>
<g><path style="opacity:0.961" fill="#1695ab" d="M 813.5,838.5 C 841.835,838.333 870.169,838.5 898.5,839C 927.344,846.185 941.51,864.685 941,894.5C 938.766,910.983 930.933,923.983 917.5,933.5C 931.039,946.584 938.039,962.584 938.5,981.5C 932.5,981.5 926.5,981.5 920.5,981.5C 919.574,963.815 911.574,950.315 896.5,941C 874.503,940.5 852.503,940.333 830.5,940.5C 830.5,954.167 830.5,967.833 830.5,981.5C 824.833,981.5 819.167,981.5 813.5,981.5C 813.5,933.833 813.5,886.167 813.5,838.5 Z M 830.5,856.5 C 852.836,856.333 875.169,856.5 897.5,857C 913.779,861.776 922.445,872.609 923.5,889.5C 921.424,909.41 910.424,920.577 890.5,923C 870.503,923.5 850.503,923.667 830.5,923.5C 830.5,901.167 830.5,878.833 830.5,856.5 Z"/></g>
</svg>
